{
    "asset" : {
        "generator" : "Khronos glTF Blender I/O v1.5.17",
        "version" : "2.0"
    },
    "scene" : 0,
    "scenes" : [
        {
            "name" : "Scene",
            "nodes" : [
                0,
                1,
                2
            ]
        }
    ],
    "nodes" : [
        {
            "name" : "Light",
            "rotation" : [
                0.16907575726509094,
                0.7558803558349609,
                -0.27217137813568115,
                0.570947527885437
            ],
            "translation" : [
                4.076245307922363,
                5.903861999511719,
                -1.0054539442062378
            ]
        },
        {
            "name" : "Camera",
            "rotation" : [
                0.483536034822464,
                0.33687159419059753,
                -0.20870360732078552,
                0.7804827094078064
            ],
            "translation" : [
                7.358891487121582,
                4.958309173583984,
                6.925790786743164
            ]
        },
        {
            "mesh" : 0,
            "name" : "\u7a7a\u767d_2",
            "rotation" : [
                0.7043551206588745,
                -0.06232138350605965,
                0.062321390956640244,
                0.704355001449585
            ],
            "scale" : [
                0.009999999776482582,
                0.009999999776482582,
                0.009999999776482582
            ],
            "translation" : [
                0.029634952545166016,
                7.557039260864258,
                0.014959641732275486
            ]
        }
    ],
    "materials" : [
        {
            "doubleSided" : true,
            "name" : "\u6750\u8d28.004",
            "pbrMetallicRoughness" : {
                "baseColorFactor" : [
                    0.9900000095367432,
                    0.9900000095367432,
                    0.9900000095367432,
                    1
                ],
                "metallicFactor" : 0,
                "roughnessFactor" : 0.4343145787715912
            }
        },
        {
            "doubleSided" : true,
            "name" : "\u6750\u8d28.005",
            "pbrMetallicRoughness" : {
                "baseColorFactor" : [
                    0.10461650043725967,
                    0.18116427958011627,
                    0.33716365694999695,
                    1
                ],
                "metallicFactor" : 0,
                "roughnessFactor" : 0.4343145787715912
            }
        }
    ],
    "meshes" : [
        {
            "name" : "\u7f51\u683c.003",
            "primitives" : [
                {
                    "attributes" : {
                        "POSITION" : 0,
                        "NORMAL" : 1,
                        "TEXCOORD_0" : 2
                    },
                    "indices" : 3,
                    "material" : 0
                },
                {
                    "attributes" : {
                        "POSITION" : 4,
                        "NORMAL" : 5,
                        "TEXCOORD_0" : 6
                    },
                    "indices" : 7,
                    "material" : 1
                }
            ]
        }
    ],
    "accessors" : [
        {
            "bufferView" : 0,
            "componentType" : 5126,
            "count" : 15702,
            "max" : [
                325.0394592285156,
                229.81732177734375,
                749.2320556640625
            ],
            "min" : [
                -325.0394592285156,
                -229.81732177734375,
                -749.2320556640625
            ],
            "type" : "VEC3"
        },
        {
            "bufferView" : 1,
            "componentType" : 5126,
            "count" : 15702,
            "type" : "VEC3"
        },
        {
            "bufferView" : 2,
            "componentType" : 5126,
            "count" : 15702,
            "type" : "VEC2"
        },
        {
            "bufferView" : 3,
            "componentType" : 5123,
            "count" : 42954,
            "type" : "SCALAR"
        },
        {
            "bufferView" : 4,
            "componentType" : 5126,
            "count" : 220,
            "max" : [
                221.08990478515625,
                114.76525115966797,
                707.7933959960938
            ],
            "min" : [
                0.826481282711029,
                -112.15921020507812,
                -524.3925170898438
            ],
            "type" : "VEC3"
        },
        {
            "bufferView" : 5,
            "componentType" : 5126,
            "count" : 220,
            "type" : "VEC3"
        },
        {
            "bufferView" : 6,
            "componentType" : 5126,
            "count" : 220,
            "type" : "VEC2"
        },
        {
            "bufferView" : 7,
            "componentType" : 5123,
            "count" : 330,
            "type" : "SCALAR"
        }
    ],
    "bufferViews" : [
        {
            "buffer" : 0,
            "byteLength" : 188424,
            "byteOffset" : 0
        },
        {
            "buffer" : 0,
            "byteLength" : 188424,
            "byteOffset" : 188424
        },
        {
            "buffer" : 0,
            "byteLength" : 125616,
            "byteOffset" : 376848
        },
        {
            "buffer" : 0,
            "byteLength" : 85908,
            "byteOffset" : 502464
        },
        {
            "buffer" : 0,
            "byteLength" : 2640,
            "byteOffset" : 588372
        },
        {
            "buffer" : 0,
            "byteLength" : 2640,
            "byteOffset" : 591012
        },
        {
            "buffer" : 0,
            "byteLength" : 1760,
            "byteOffset" : 593652
        },
        {
            "buffer" : 0,
            "byteLength" : 660,
            "byteOffset" : 595412
        }
    ],
    "buffers" : [
        {
            "byteLength" : 596072,
            "uri" : "data:application/octet-stream;base64,"
        }
    ]
}
