{
    "asset" : {
        "generator" : "Khronos glTF Blender I/O v1.5.17",
        "version" : "2.0"
    },
    "scene" : 0,
    "scenes" : [
        {
            "name" : "Scene",
            "nodes" : [
                0,
                1,
                2
            ]
        }
    ],
    "nodes" : [
        {
            "name" : "Light",
            "rotation" : [
                0.16907575726509094,
                0.7558803558349609,
                -0.27217137813568115,
                0.570947527885437
            ],
            "translation" : [
                4.076245307922363,
                5.903861999511719,
                -1.0054539442062378
            ]
        },
        {
            "name" : "Camera",
            "rotation" : [
                0.483536034822464,
                0.33687159419059753,
                -0.20870360732078552,
                0.7804827094078064
            ],
            "translation" : [
                7.358891487121582,
                4.958309173583984,
                6.925790786743164
            ]
        },
        {
            "mesh" : 0,
            "name" : "\u7a7a\u767d_1",
            "rotation" : [
                0.7071068286895752,
                0,
                0,
                0.7071067094802856
            ],
            "scale" : [
                0.009999999776482582,
                0.009999999776482582,
                0.009999999776482582
            ],
            "translation" : [
                0.04993493854999542,
                8.210391998291016,
                0.053167328238487244
            ]
        }
    ],
    "materials" : [
        {
            "doubleSided" : true,
            "name" : "\u6750\u8d28.006",
            "pbrMetallicRoughness" : {
                "baseColorFactor" : [
                    0.9900000095367432,
                    0.9900000095367432,
                    0.9900000095367432,
                    1
                ],
                "metallicFactor" : 0,
                "roughnessFactor" : 0.4343145787715912
            }
        },
        {
            "doubleSided" : true,
            "name" : "\u6750\u8d28.007",
            "pbrMetallicRoughness" : {
                "baseColorFactor" : [
                    0.05969037860631943,
                    0.1768617480993271,
                    0.4672597348690033,
                    1
                ],
                "metallicFactor" : 0,
                "roughnessFactor" : 0.4343145787715912
            }
        }
    ],
    "meshes" : [
        {
            "name" : "\u7f51\u683c.004",
            "primitives" : [
                {
                    "attributes" : {
                        "POSITION" : 0,
                        "NORMAL" : 1,
                        "TEXCOORD_0" : 2
                    },
                    "indices" : 3,
                    "material" : 0
                },
                {
                    "attributes" : {
                        "POSITION" : 4,
                        "NORMAL" : 5,
                        "TEXCOORD_0" : 6
                    },
                    "indices" : 7,
                    "material" : 1
                }
            ]
        }
    ],
    "accessors" : [
        {
            "bufferView" : 0,
            "componentType" : 5126,
            "count" : 17382,
            "max" : [
                279.5826721191406,
                279.5826721191406,
                821.288818359375
            ],
            "min" : [
                -279.5826721191406,
                -279.5826721191406,
                -821.288818359375
            ],
            "type" : "VEC3"
        },
        {
            "bufferView" : 1,
            "componentType" : 5126,
            "count" : 17382,
            "type" : "VEC3"
        },
        {
            "bufferView" : 2,
            "componentType" : 5126,
            "count" : 17382,
            "type" : "VEC2"
        },
        {
            "bufferView" : 3,
            "componentType" : 5123,
            "count" : 72072,
            "type" : "SCALAR"
        },
        {
            "bufferView" : 4,
            "componentType" : 5126,
            "count" : 516,
            "max" : [
                143.82875061035156,
                143.82875061035156,
                742.6615600585938
            ],
            "min" : [
                -143.82875061035156,
                -143.82875061035156,
                -256.8017272949219
            ],
            "type" : "VEC3"
        },
        {
            "bufferView" : 5,
            "componentType" : 5126,
            "count" : 516,
            "type" : "VEC3"
        },
        {
            "bufferView" : 6,
            "componentType" : 5126,
            "count" : 516,
            "type" : "VEC2"
        },
        {
            "bufferView" : 7,
            "componentType" : 5123,
            "count" : 2592,
            "type" : "SCALAR"
        }
    ],
    "bufferViews" : [
        {
            "buffer" : 0,
            "byteLength" : 208584,
            "byteOffset" : 0
        },
        {
            "buffer" : 0,
            "byteLength" : 208584,
            "byteOffset" : 208584
        },
        {
            "buffer" : 0,
            "byteLength" : 139056,
            "byteOffset" : 417168
        },
        {
            "buffer" : 0,
            "byteLength" : 144144,
            "byteOffset" : 556224
        },
        {
            "buffer" : 0,
            "byteLength" : 6192,
            "byteOffset" : 700368
        },
        {
            "buffer" : 0,
            "byteLength" : 6192,
            "byteOffset" : 706560
        },
        {
            "buffer" : 0,
            "byteLength" : 4128,
            "byteOffset" : 712752
        },
        {
            "buffer" : 0,
            "byteLength" : 5184,
            "byteOffset" : 716880
        }
    ],
    "buffers" : [
        {
            "byteLength" : 722064,
            "uri" : "data:application/octet-stream;base64,"
        }
    ]
}
