{
    "asset" : {
        "generator" : "Khronos glTF Blender I/O v1.5.17",
        "version" : "2.0"
    },
    "scene" : 0,
    "scenes" : [
        {
            "name" : "Scene",
            "nodes" : [
                0,
                1,
                2
            ]
        }
    ],
    "nodes" : [
        {
            "name" : "Light",
            "rotation" : [
                0.16907575726509094,
                0.7558803558349609,
                -0.27217137813568115,
                0.570947527885437
            ],
            "translation" : [
                4.076245307922363,
                5.903861999511719,
                -1.0054539442062378
            ]
        },
        {
            "name" : "Camera",
            "rotation" : [
                0.483536034822464,
                0.33687159419059753,
                -0.20870360732078552,
                0.7804827094078064
            ],
            "translation" : [
                7.358891487121582,
                4.958309173583984,
                6.925790786743164
            ]
        },
        {
            "mesh" : 0,
            "name" : "\u7a7a\u767d_9",
            "rotation" : [
                0.7071068286895752,
                0,
                0,
                0.7071067094802856
            ],
            "scale" : [
                0.009999999776482582,
                0.009999999776482582,
                0.009999999776482582
            ],
            "translation" : [
                -0.05475425720214844,
                7.970813751220703,
                -0.12817096710205078
            ]
        }
    ],
    "materials" : [
        {
            "doubleSided" : true,
            "name" : "\u6750\u8d28.008",
            "pbrMetallicRoughness" : {
                "baseColorFactor" : [
                    0.9900000095367432,
                    0.9900000095367432,
                    0.9900000095367432,
                    1
                ],
                "metallicFactor" : 0,
                "roughnessFactor" : 0.4343145787715912
            }
        },
        {
            "doubleSided" : true,
            "name" : "\u6750\u8d28.009",
            "pbrMetallicRoughness" : {
                "baseColorFactor" : [
                    0.0691632404923439,
                    0.1509467214345932,
                    0.3485341966152191,
                    1
                ],
                "metallicFactor" : 0,
                "roughnessFactor" : 0.6524963974952698
            }
        }
    ],
    "meshes" : [
        {
            "name" : "\u7f51\u683c.005",
            "primitives" : [
                {
                    "attributes" : {
                        "POSITION" : 0,
                        "NORMAL" : 1,
                        "TEXCOORD_0" : 2
                    },
                    "indices" : 3,
                    "material" : 0
                },
                {
                    "attributes" : {
                        "POSITION" : 4,
                        "NORMAL" : 5,
                        "TEXCOORD_0" : 6
                    },
                    "indices" : 7,
                    "material" : 1
                }
            ]
        }
    ],
    "accessors" : [
        {
            "bufferView" : 0,
            "componentType" : 5126,
            "count" : 14174,
            "max" : [
                377.7705078125,
                257.23663330078125,
                795.9371337890625
            ],
            "min" : [
                -377.7705078125,
                -257.23663330078125,
                -795.9371337890625
            ],
            "type" : "VEC3"
        },
        {
            "bufferView" : 1,
            "componentType" : 5126,
            "count" : 14174,
            "type" : "VEC3"
        },
        {
            "bufferView" : 2,
            "componentType" : 5126,
            "count" : 14174,
            "type" : "VEC2"
        },
        {
            "bufferView" : 3,
            "componentType" : 5123,
            "count" : 47502,
            "type" : "SCALAR"
        },
        {
            "bufferView" : 4,
            "componentType" : 5126,
            "count" : 1176,
            "max" : [
                308.691162109375,
                210.58087158203125,
                739.461181640625
            ],
            "min" : [
                -308.691162109375,
                -168.4405059814453,
                -565.5958251953125
            ],
            "type" : "VEC3"
        },
        {
            "bufferView" : 5,
            "componentType" : 5126,
            "count" : 1176,
            "type" : "VEC3"
        },
        {
            "bufferView" : 6,
            "componentType" : 5126,
            "count" : 1176,
            "type" : "VEC2"
        },
        {
            "bufferView" : 7,
            "componentType" : 5123,
            "count" : 4032,
            "type" : "SCALAR"
        }
    ],
    "bufferViews" : [
        {
            "buffer" : 0,
            "byteLength" : 170088,
            "byteOffset" : 0
        },
        {
            "buffer" : 0,
            "byteLength" : 170088,
            "byteOffset" : 170088
        },
        {
            "buffer" : 0,
            "byteLength" : 113392,
            "byteOffset" : 340176
        },
        {
            "buffer" : 0,
            "byteLength" : 95004,
            "byteOffset" : 453568
        },
        {
            "buffer" : 0,
            "byteLength" : 14112,
            "byteOffset" : 548572
        },
        {
            "buffer" : 0,
            "byteLength" : 14112,
            "byteOffset" : 562684
        },
        {
            "buffer" : 0,
            "byteLength" : 9408,
            "byteOffset" : 576796
        },
        {
            "buffer" : 0,
            "byteLength" : 8064,
            "byteOffset" : 586204
        }
    ],
    "buffers" : [
        {
            "byteLength" : 594268,
            "uri" : "data:application/octet-stream;base64,"
        }
    ]
}
